<?xml version="1.0" encoding="utf-8"?>
<svg xmlns="http://www.w3.org/2000/svg" viewBox="0 0 500 500">
  <defs>
    <linearGradient id="paint0_linear_4325_17652" x1="28.5047" y1="0.876305" x2="76.1753" y2="55.33" gradientUnits="userSpaceOnUse" gradientTransform="matrix(3.286192, -0.102139, 0, 5.904546, 83.80942, 101.706488)">
      <stop stop-color="#1F79DC"/>
      <stop offset="1" stop-color="#034EA0"/>
    </linearGradient>
  </defs>
  <path d="M 274.961 379.96 C 275.262 379.95 275.553 379.878 275.833 379.737 C 276.114 379.599 276.291 379.406 276.367 379.166 L 277.013 379.146 L 275.891 383.786 C 275.703 384.432 275.152 384.773 274.233 384.801 L 272.574 384.853 L 269.428 399.281 C 269.391 399.482 269.475 399.682 269.682 399.89 C 269.888 400.093 270.095 400.193 270.299 400.187 L 270.102 400.885 L 262.293 401.128 C 261.695 401.146 261.392 400.838 261.392 400.196 C 261.392 400.113 261.413 399.951 261.451 399.708 L 264.625 385.102 L 262.685 385.162 C 262.388 385.172 262.14 385.253 261.942 385.411 C 261.744 385.568 261.609 385.769 261.533 386.011 L 260.829 386.033 L 261.952 381.183 C 262.027 380.899 262.178 380.687 262.402 380.552 C 262.627 380.414 262.983 380.337 263.47 380.322 L 274.961 379.965 L 274.961 379.96 Z" fill="white" style=""/>
  <path d="M 283.333 400.47 C 282.847 400.485 282.486 400.41 282.251 400.248 C 282.018 400.083 281.882 399.794 281.843 399.372 L 281.592 396.309 L 278.333 396.41 L 277.184 398.916 C 277.163 398.975 277.156 399.027 277.156 399.067 C 277.156 399.107 277.146 399.188 277.128 399.309 C 277.128 399.489 277.208 399.645 277.366 399.769 C 277.526 399.896 277.709 399.953 277.914 399.947 L 277.772 400.645 L 271.677 400.835 C 270.891 400.859 270.499 400.541 270.499 399.877 C 270.499 399.698 270.546 399.508 270.64 399.301 L 278.9 381.888 C 278.955 381.767 278.986 381.617 278.986 381.435 C 278.986 381.212 278.894 381.011 278.716 380.827 C 278.538 380.641 278.346 380.551 278.14 380.557 L 278.308 379.858 L 286.68 379.598 C 287.11 379.584 287.475 379.699 287.777 379.94 C 288.078 380.182 288.224 380.535 288.224 380.995 L 289.518 398.532 C 289.518 398.791 289.648 399.03 289.91 399.243 C 290.173 399.454 290.445 399.558 290.724 399.549 L 290.584 400.244 L 283.333 400.47 Z M 279.992 392.326 L 281.594 392.277 L 281.369 388.912 L 279.992 392.326 Z" fill="white" style=""/>
  <path d="M 307.434 378.922 C 308.689 378.883 309.658 379.203 310.342 379.886 C 311.023 380.566 311.367 381.438 311.367 382.502 C 311.367 382.662 311.352 382.844 311.324 383.044 C 311.297 383.248 311.272 383.398 311.254 383.498 C 310.823 385.719 309.944 387.078 308.614 387.582 C 309.157 387.928 309.553 388.311 309.806 388.733 C 310.059 389.159 310.186 389.79 310.186 390.633 C 310.186 391.395 310.043 392.464 309.766 393.834 C 309.28 396.117 308.528 397.698 307.516 398.573 C 306.6 399.363 305.184 399.788 303.277 399.848 L 292.125 400.194 C 291.807 400.204 291.566 400.115 291.409 399.928 C 291.248 399.744 291.17 399.491 291.17 399.169 C 291.17 399.047 291.19 398.885 291.228 398.687 L 295.048 380.956 C 295.085 380.734 295.011 380.527 294.823 380.331 C 294.635 380.134 294.426 380.043 294.204 380.05 L 294.371 379.35 L 307.434 378.922 Z M 300.831 395.262 C 301.337 395.246 301.687 395.11 301.883 394.853 C 302.081 394.594 302.272 394.022 302.46 393.131 C 302.593 392.565 302.657 392.104 302.657 391.741 C 302.657 391.059 302.311 390.727 301.618 390.748 L 300.831 390.773 L 299.877 395.288 L 300.831 395.259 L 300.831 395.262 Z M 302.829 386.71 C 303.147 386.7 303.371 386.596 303.501 386.402 C 303.634 386.206 303.755 385.858 303.867 385.351 C 303.98 384.847 304.035 384.482 304.035 384.265 C 304.035 383.743 303.762 383.49 303.221 383.506 L 302.377 383.533 L 301.702 386.741 L 302.829 386.706 L 302.829 386.71 Z" fill="white" style=""/>
  <path d="M 269.446 413.344 C 270.26 413.319 270.901 413.537 271.368 414.002 C 271.833 414.465 272.066 415.143 272.066 416.04 C 272.066 416.518 272.001 417.043 271.871 417.615 C 271.74 418.187 271.582 418.724 271.397 419.219 C 271.094 420.041 270.688 420.602 270.184 420.895 C 269.682 421.192 268.946 421.354 267.979 421.384 L 261.383 421.589 C 261.198 421.595 261.059 421.544 260.967 421.436 C 260.874 421.329 260.829 421.179 260.829 420.994 C 260.829 420.924 260.84 420.831 260.861 420.713 L 263.076 410.436 C 263.099 410.308 263.053 410.189 262.946 410.072 C 262.837 409.962 262.719 409.907 262.589 409.911 L 262.685 409.507 L 272.732 409.195 L 272.276 411.128 C 272.221 411.363 272.071 411.557 271.82 411.709 C 271.569 411.86 271.323 411.943 271.072 411.951 L 267.295 412.068 L 267.002 413.42 L 269.446 413.344 Z M 265.898 418.654 L 266.433 418.638 C 266.693 418.63 266.881 418.538 266.993 418.356 C 267.11 418.179 267.229 417.816 267.359 417.264 C 267.425 416.959 267.458 416.707 267.458 416.513 C 267.458 416.129 267.29 415.94 266.952 415.951 L 266.462 415.966 L 265.898 418.654 Z" fill="white" style=""/>
  <path d="M 280.916 408.941 C 281.869 408.911 282.659 409.15 283.278 409.662 C 283.896 410.172 284.208 410.91 284.208 411.874 C 284.208 412.223 284.17 412.565 284.094 412.889 L 283.117 417.352 C 282.834 418.674 282.346 419.628 281.653 420.206 C 281.044 420.726 280.209 421.001 279.145 421.034 L 275.804 421.138 C 274.784 421.169 274.025 420.947 273.531 420.467 C 273.038 419.988 272.791 419.267 272.791 418.3 C 272.791 417.731 272.861 417.136 273 416.514 L 273.717 413.194 C 274 411.918 274.406 410.957 274.939 410.312 C 275.623 409.504 276.584 409.075 277.822 409.037 L 280.916 408.941 Z M 277.399 417.355 C 277.366 417.52 277.351 417.657 277.351 417.774 C 277.351 418.065 277.503 418.208 277.808 418.198 C 278.013 418.192 278.168 418.138 278.27 418.037 C 278.373 417.934 278.455 417.753 278.506 417.497 L 279.581 412.563 C 279.604 412.422 279.613 412.327 279.613 412.282 C 279.613 411.944 279.456 411.783 279.139 411.793 C 278.794 411.804 278.559 412.042 278.442 412.513 L 277.399 417.355 Z" fill="white" style=""/>
  <path d="M 293.836 419.547 C 293.858 419.733 293.929 419.882 294.046 419.993 C 294.167 420.105 294.301 420.159 294.454 420.154 L 294.374 420.56 L 289.848 420.701 C 289.708 420.705 289.57 420.64 289.442 420.504 C 289.312 420.368 289.247 420.221 289.247 420.057 L 289.018 416.016 L 287.506 419.622 C 287.473 419.704 287.459 419.797 287.459 419.902 C 287.459 420.03 287.506 420.141 287.604 420.228 C 287.701 420.319 287.81 420.36 287.93 420.357 L 287.849 420.763 L 284.463 420.868 C 284.258 420.875 284.102 420.82 283.998 420.707 C 283.896 420.595 283.845 420.446 283.845 420.259 C 283.845 420.12 283.854 420.022 283.877 419.972 C 283.898 419.921 283.914 419.88 283.927 419.857 L 288.192 409.937 C 288.248 409.796 288.272 409.683 288.272 409.601 C 288.272 409.472 288.22 409.362 288.118 409.266 C 288.013 409.167 287.905 409.124 287.785 409.128 L 287.864 408.725 L 291.734 408.604 C 291.984 408.597 292.195 408.655 292.368 408.776 C 292.541 408.899 292.638 409.063 292.662 409.272 L 293.836 419.547 Z" fill="white" style=""/>
  <path d="M 303.186 408.248 C 304.14 408.219 304.929 408.457 305.548 408.97 C 306.166 409.48 306.478 410.218 306.478 411.182 C 306.478 411.531 306.44 411.872 306.364 412.197 L 305.388 416.66 C 305.104 417.982 304.617 418.936 303.923 419.514 C 303.313 420.034 302.48 420.308 301.415 420.342 L 298.076 420.445 C 297.056 420.477 296.3 420.255 295.804 419.775 C 295.311 419.295 295.062 418.575 295.062 417.608 C 295.062 417.039 295.132 416.444 295.274 415.821 L 295.991 412.502 C 296.273 411.225 296.678 410.265 297.212 409.62 C 297.896 408.812 298.858 408.383 300.095 408.345 L 303.186 408.248 Z M 299.669 416.663 C 299.637 416.828 299.621 416.965 299.621 417.082 C 299.621 417.373 299.775 417.516 300.077 417.506 C 300.283 417.5 300.439 417.446 300.541 417.345 C 300.644 417.242 300.724 417.061 300.776 416.804 L 301.851 411.871 C 301.874 411.73 301.883 411.635 301.883 411.59 C 301.883 411.252 301.725 411.091 301.41 411.101 C 301.064 411.111 300.83 411.35 300.712 411.82 L 299.669 416.663 Z" fill="white" style=""/>
  <path d="M 243.832 377.727 C 331.009 375.018 401.681 310.793 401.681 234.271 C 401.681 157.757 331.009 97.925 243.832 100.634 C 156.656 103.344 85.987 167.569 85.987 244.083 C 85.987 320.605 156.656 380.437 243.832 377.727 Z" fill="white" style=""/>
  <path fill-rule="evenodd" clip-rule="evenodd" d="M 393.817 277.66 C 373.133 333.705 313.822 375.552 243.832 377.727 C 173.462 379.915 113.879 341.342 93.51 286.055 L 95.058 285.154 L 102.321 280.914 L 153.602 250.845 L 148.777 274.724 C 148.368 276.74 149.525 278.637 150.638 277.739 L 195.912 241.767 L 180.566 282.402 C 179.72 284.607 181.166 287.259 182.448 285.8 L 227.88 234.757 L 227.88 264.892 C 227.88 267.03 229.328 268.082 230.219 266.572 L 234.879 258.618 L 242.216 288.52 C 242.678 290.388 244.171 290.464 244.726 288.625 L 256.625 248.086 L 311.836 295.759 C 313.091 296.874 314.395 294.224 313.6 292.164 L 299.047 254.03 C 298.707 253.184 298.73 252.046 299.093 251.211 L 305.369 235.956 L 312.682 251.82 C 313.334 253.219 314.567 252.918 315.023 251.278 L 318.884 237.282 L 352.304 279.912 C 353.073 280.871 354.19 280.196 354.45 278.568 L 357.928 258.226 L 393.692 277.567 C 393.716 277.566 393.739 277.605 393.739 277.605 C 393.765 277.625 393.792 277.624 393.817 277.66 Z" fill="#00984A" style=""/>
  <path fill-rule="evenodd" clip-rule="evenodd" d="M 401.683 233.769 C 401.683 235.117 401.658 236.436 401.613 237.744 C 401.589 238.891 401.54 239.981 401.465 241.067 C 401.416 242.072 401.341 243.077 401.273 244.078 C 401.223 244.778 401.147 245.471 401.079 246.185 C 400.859 248.643 400.542 251.094 400.157 253.506 C 400.03 254.384 399.886 255.27 399.745 256.092 C 399.698 256.405 399.642 256.711 399.574 257.018 C 399.38 258.112 399.162 259.216 398.939 260.262 C 398.769 261.111 398.574 261.976 398.359 262.816 C 398.312 263.085 398.236 263.39 398.165 263.663 L 398.093 263.617 L 398.046 263.576 L 295.674 177.518 C 295.041 177.014 294.287 177.379 293.899 178.452 L 280.148 215.766 L 243.506 135.997 C 242.992 134.975 242.119 134.82 241.536 135.752 L 190.63 214.003 L 166.505 210.607 C 166.117 210.537 165.727 210.631 165.363 210.947 C 158.736 216.522 91.888 272.995 88.068 276.221 C 87.902 275.65 87.754 275.146 87.635 274.573 C 87.442 273.803 87.247 272.973 87.053 272.146 C 86.665 270.5 86.305 268.799 86.01 267.159 C 85.814 266.161 85.643 265.2 85.499 264.205 C 84.939 261.002 84.552 257.739 84.282 254.421 C 84.089 252.24 83.964 250.022 83.895 247.797 C 83.845 246.446 83.821 245.041 83.821 243.649 C 83.821 165.279 154.97 99.498 242.76 96.77 C 330.532 94.053 401.683 155.41 401.683 233.769 Z" fill="url(#paint0_linear_4325_17652)" style=""/>
  <path d="M 156.26 315.744 C 156.476 315.738 156.685 315.665 156.884 315.505 C 157.088 315.341 157.212 315.12 157.27 314.83 L 157.729 314.816 L 156.925 320.288 C 156.79 321.061 156.395 321.454 155.735 321.475 L 154.543 321.512 L 152.289 338.539 C 152.258 338.779 152.32 339.026 152.468 339.268 C 152.617 339.514 152.767 339.626 152.912 339.621 L 152.772 340.445 L 147.173 340.619 C 146.74 340.632 146.525 340.251 146.525 339.492 C 146.525 339.399 146.535 339.206 146.566 338.923 L 148.839 321.675 L 147.453 321.718 C 147.237 321.725 147.061 321.825 146.916 321.999 C 146.778 322.185 146.677 322.424 146.623 322.702 L 146.124 322.717 L 146.927 316.984 C 146.978 316.66 147.083 316.406 147.247 316.247 C 147.414 316.084 147.661 316.01 148.014 315.999 L 156.26 315.742 L 156.26 315.744 Z" fill="white" style=""/>
  <path d="M 162.73 340.135 C 162.377 340.146 162.122 340.046 161.954 339.854 C 161.784 339.661 161.693 339.304 161.662 338.811 L 161.48 335.192 L 159.143 335.265 L 158.315 338.207 C 158.301 338.28 158.294 338.343 158.294 338.377 C 158.294 338.421 158.291 338.523 158.277 338.672 C 158.277 338.888 158.338 339.071 158.446 339.227 C 158.564 339.37 158.692 339.442 158.839 339.437 L 158.738 340.259 L 154.37 340.395 C 153.804 340.413 153.524 340.02 153.524 339.239 C 153.524 339.021 153.56 338.801 153.624 338.551 L 159.544 318.067 C 159.583 317.924 159.604 317.752 159.604 317.526 C 159.604 317.275 159.537 317.026 159.41 316.804 C 159.28 316.581 159.146 316.468 158.996 316.472 L 159.115 315.656 L 165.118 315.469 C 165.428 315.459 165.693 315.61 165.908 315.89 C 166.123 316.186 166.228 316.601 166.228 317.152 L 167.155 337.933 C 167.155 338.238 167.25 338.521 167.436 338.778 C 167.623 339.034 167.815 339.158 168.019 339.152 L 167.918 339.974 L 162.73 340.135 Z M 160.332 330.446 L 161.48 330.41 L 161.316 326.427 L 160.332 330.446 Z" fill="white" style=""/>
  <path d="M 167.056 317.624 C 167.029 317.197 166.94 316.856 166.783 316.622 C 166.631 316.372 166.458 316.254 166.271 316.26 L 166.368 315.446 L 171.991 315.271 C 172.165 315.266 172.334 315.414 172.491 315.714 C 172.656 316.026 172.732 316.349 172.732 316.71 L 172.895 326.04 L 174.869 317.823 L 174.949 317.248 C 174.949 316.961 174.891 316.682 174.779 316.419 C 174.661 316.155 174.533 316.012 174.387 316.017 L 174.487 315.203 L 178.575 315.076 C 178.816 315.068 179.013 315.223 179.171 315.542 C 179.322 315.854 179.404 316.192 179.404 316.542 L 179.322 317.258 L 173.401 339.824 L 169.635 339.941 C 169.325 339.95 169.068 339.83 168.872 339.596 C 168.667 339.37 168.548 339.054 168.509 338.653 L 167.056 317.624 Z" fill="white" style=""/>
  <path d="M 184.24 339.467 C 183.891 339.477 183.633 339.377 183.463 339.186 C 183.293 338.992 183.203 338.636 183.173 338.143 L 182.991 334.523 L 180.653 334.596 L 179.825 337.539 C 179.812 337.611 179.808 337.674 179.808 337.708 C 179.808 337.752 179.801 337.855 179.789 338.003 C 179.789 338.219 179.847 338.402 179.959 338.559 C 180.076 338.701 180.203 338.773 180.349 338.769 L 180.25 339.591 L 175.882 339.726 C 175.314 339.744 175.037 339.352 175.037 338.571 C 175.037 338.353 175.068 338.133 175.135 337.883 L 181.057 317.399 C 181.094 317.255 181.114 317.084 181.114 316.858 C 181.114 316.607 181.049 316.358 180.92 316.136 C 180.794 315.913 180.657 315.799 180.507 315.804 L 180.631 314.987 L 186.633 314.8 C 186.94 314.791 187.206 314.941 187.42 315.222 C 187.634 315.517 187.74 315.933 187.74 316.484 L 188.665 337.264 C 188.665 337.569 188.76 337.852 188.945 338.109 C 189.132 338.366 189.324 338.49 189.53 338.483 L 189.431 339.305 L 184.24 339.467 Z M 181.849 329.777 L 182.997 329.741 L 182.832 325.758 L 181.849 329.777 Z" fill="white" style=""/>
  <path d="M 203.077 338.881 L 199.417 338.995 C 199.015 339.007 198.675 338.92 198.4 338.733 C 198.128 338.56 197.948 338.207 197.867 337.715 L 195.811 328.987 L 194.645 336.962 L 194.602 337.573 C 194.602 337.813 194.662 337.996 194.772 338.125 C 194.884 338.255 195.037 338.312 195.23 338.306 L 195.128 339.128 L 190.598 339.269 C 190.369 339.276 190.2 339.164 190.082 338.937 C 189.969 338.721 189.914 338.419 189.914 338.041 C 189.914 337.89 189.926 337.711 189.955 337.473 L 192.696 316.542 C 192.726 316.289 192.667 316.041 192.534 315.799 C 192.399 315.561 192.252 315.439 192.09 315.444 L 192.213 314.627 L 197.329 314.468 C 197.493 314.463 197.673 314.596 197.882 314.866 C 198.091 315.128 198.225 315.423 198.297 315.736 L 200.471 324.643 L 201.44 316.909 C 201.47 316.764 201.483 316.54 201.483 316.225 C 201.483 315.952 201.412 315.691 201.277 315.485 C 201.144 315.265 200.996 315.167 200.833 315.172 L 200.957 314.355 L 205.47 314.215 C 205.686 314.208 205.848 314.342 205.968 314.593 C 206.084 314.852 206.136 315.144 206.136 315.479 L 206.079 316.44 L 203.077 338.881 Z" fill="white" style=""/>
  <path d="M 224.368 313.599 C 225.269 313.571 225.96 313.961 226.453 314.785 C 226.942 315.602 227.188 316.641 227.188 317.906 C 227.188 318.086 227.176 318.3 227.16 318.538 C 227.138 318.772 227.122 318.951 227.109 319.072 C 226.801 321.693 226.173 323.296 225.217 323.874 C 225.605 324.282 225.892 324.744 226.071 325.252 C 226.254 325.756 226.345 326.508 226.345 327.511 C 226.345 328.403 226.247 329.664 226.042 331.294 C 225.692 333.988 225.156 335.851 224.433 336.86 C 223.773 337.787 222.758 338.269 221.395 338.312 L 213.397 338.56 C 213.171 338.567 212.999 338.458 212.887 338.228 C 212.768 338.012 212.716 337.711 212.716 337.333 C 212.716 337.182 212.726 337.002 212.755 336.764 L 215.497 315.836 C 215.521 315.58 215.467 315.332 215.334 315.09 C 215.2 314.852 215.053 314.736 214.89 314.741 L 215.014 313.918 L 224.368 313.599 Z M 219.638 332.845 C 220.001 332.834 220.253 332.682 220.392 332.374 C 220.532 332.074 220.668 331.395 220.807 330.352 C 220.898 329.69 220.943 329.146 220.943 328.711 C 220.943 327.899 220.696 327.506 220.2 327.521 L 219.632 327.539 L 218.95 332.867 L 219.638 332.845 Z M 221.068 322.747 C 221.298 322.74 221.46 322.632 221.55 322.396 C 221.647 322.161 221.734 321.751 221.815 321.158 C 221.896 320.56 221.935 320.136 221.935 319.877 C 221.935 319.256 221.736 318.955 221.355 318.967 L 220.748 318.986 L 220.262 322.772 L 221.068 322.747 Z" fill="white" style=""/>
  <path d="M 236.583 313.248 C 237.767 313.211 238.734 313.73 239.503 314.782 C 240.268 315.845 240.655 317.353 240.655 319.322 C 240.655 320.034 240.607 320.726 240.513 321.395 L 239.305 330.477 C 238.956 333.173 238.357 335.1 237.492 336.272 C 236.741 337.319 235.709 337.851 234.39 337.892 L 230.263 338.02 C 229.002 338.059 228.062 337.589 227.449 336.597 C 226.834 335.608 226.535 334.127 226.535 332.148 C 226.535 330.979 226.619 329.766 226.794 328.508 L 227.684 321.74 C 228.032 319.139 228.534 317.182 229.191 315.885 C 230.041 314.242 231.226 313.396 232.756 313.349 L 236.583 313.23 L 236.583 313.248 Z M 232.227 330.346 C 232.182 330.682 232.167 330.967 232.167 331.207 C 232.167 331.804 232.353 332.083 232.732 332.071 C 232.989 332.063 233.183 331.959 233.302 331.76 C 233.433 331.549 233.532 331.183 233.598 330.669 L 234.925 320.617 C 234.953 320.325 234.967 320.145 234.967 320.048 C 234.967 319.354 234.776 319.021 234.382 319.033 C 233.954 319.046 233.665 319.536 233.523 320.484 L 232.227 330.346 Z" fill="white" style=""/>
  <path d="M 247.501 326.853 L 247.542 326.387 C 247.542 326.167 247.462 326.067 247.298 326.072 C 247.141 326.077 247.059 325.956 247.059 325.719 L 247.099 325.256 L 247.683 320.999 L 252.132 320.86 C 252.455 320.85 252.707 321.016 252.884 321.352 C 253.065 321.694 253.159 322.079 253.159 322.496 C 253.159 323.045 253.129 323.493 253.078 323.849 L 252.011 332.264 C 251.772 334.167 251.397 335.509 250.902 336.264 C 250.406 337.022 249.574 337.436 248.404 337.472 L 243.528 337.624 C 242.172 337.666 241.202 337.23 240.607 336.315 C 240.083 335.497 239.822 334.241 239.822 332.536 C 239.822 331.44 239.925 330.107 240.142 328.535 L 241.251 319.916 C 241.528 317.678 242.075 315.934 242.881 314.702 C 243.623 313.561 244.468 312.975 245.419 312.945 L 253.656 312.689 C 253.614 313.402 253.539 314.122 253.433 314.873 C 253.328 315.619 253.206 316.217 253.084 316.701 C 252.954 317.18 252.761 317.528 252.501 317.75 C 252.239 317.976 251.939 318.09 251.602 318.101 L 248.202 318.207 C 247.826 318.218 247.53 318.387 247.327 318.72 C 247.121 319.039 246.965 319.574 246.87 320.324 L 245.564 330.334 C 245.541 330.661 245.527 330.885 245.527 330.98 C 245.527 331.576 245.735 331.859 246.149 331.846 C 246.622 331.832 246.906 331.38 247.011 330.5 L 247.501 326.853 Z" fill="white" style=""/>
  <path d="M 262.954 312.428 C 264.311 312.386 265.297 312.976 265.915 314.194 C 266.461 315.292 266.743 316.922 266.743 319.089 C 266.743 319.923 266.704 320.859 266.616 321.893 C 266.527 322.921 266.408 324.014 266.245 325.169 C 265.615 329.909 264.987 333.074 264.375 334.638 C 263.763 336.215 262.875 337.023 261.703 337.059 L 252.722 337.338 C 252.494 337.345 252.322 337.234 252.21 337.006 C 252.092 336.79 252.04 336.488 252.04 336.11 C 252.04 335.959 252.049 335.78 252.08 335.542 L 254.814 314.611 C 254.844 314.358 254.793 314.11 254.659 313.868 C 254.524 313.63 254.377 313.508 254.213 313.513 L 254.338 312.696 L 262.954 312.428 Z M 259.005 331.255 C 259.282 331.246 259.502 331.097 259.653 330.805 C 259.798 330.522 259.919 330.025 260.013 329.338 L 261.178 320.426 C 261.231 320.028 261.259 319.646 261.259 319.285 C 261.259 318.551 261.021 318.188 260.539 318.203 L 260.036 318.219 L 258.324 331.276 L 259.005 331.255 Z" fill="white" style=""/>
  <path d="M 281.245 325.805 L 281.285 325.338 C 281.285 325.118 281.205 325.018 281.042 325.023 C 280.88 325.028 280.799 324.907 280.799 324.67 L 280.841 324.207 L 281.426 319.95 L 285.874 319.812 C 286.194 319.802 286.447 319.967 286.629 320.303 C 286.809 320.646 286.903 321.03 286.903 321.447 C 286.903 321.996 286.874 322.445 286.822 322.8 L 285.755 331.215 C 285.513 333.118 285.142 334.46 284.645 335.215 C 284.147 335.973 283.316 336.387 282.147 336.424 L 277.271 336.575 C 275.915 336.617 274.945 336.181 274.351 335.266 C 273.825 334.448 273.56 333.192 273.56 331.487 C 273.56 330.391 273.668 329.058 273.883 327.486 L 274.99 318.867 C 275.27 316.629 275.819 314.885 276.626 313.653 C 277.367 312.512 278.212 311.926 279.161 311.896 L 287.399 311.64 C 287.357 312.354 287.281 313.073 287.176 313.824 C 287.074 314.558 286.949 315.168 286.828 315.652 C 286.697 316.131 286.505 316.479 286.244 316.701 C 285.981 316.927 285.682 317.042 285.345 317.052 L 281.945 317.158 C 281.57 317.169 281.273 317.339 281.071 317.671 C 280.864 317.99 280.71 318.525 280.612 319.275 L 279.307 329.285 C 279.286 329.612 279.266 329.836 279.266 329.931 C 279.266 330.527 279.478 330.811 279.892 330.798 C 280.363 330.783 280.65 330.331 280.754 329.451 L 281.245 325.805 Z" fill="white" style=""/>
  <path d="M 298.33 329.151 C 298.42 329.436 298.551 329.669 298.714 329.877 C 298.871 330.062 299.056 330.155 299.256 330.149 L 299.839 330.131 L 299.353 334.219 C 299.22 335.335 298.738 335.908 297.901 335.934 L 295.203 336.018 C 294.853 336.029 294.55 335.872 294.298 335.562 C 294.04 335.247 293.885 334.848 293.816 334.379 L 292.646 327.137 L 291.784 334.12 L 291.765 334.482 C 291.765 334.716 291.825 334.912 291.936 335.068 C 292.045 335.216 292.193 335.277 292.367 335.272 L 292.268 336.093 L 286.687 336.266 C 286.459 336.274 286.291 336.169 286.172 335.94 C 286.057 335.721 286.004 335.423 286.004 335.039 C 286.004 334.895 286.016 334.714 286.044 334.471 L 288.779 313.546 C 288.809 313.289 288.758 313.041 288.623 312.797 C 288.49 312.565 288.341 312.445 288.18 312.45 L 288.303 311.638 L 297.626 311.348 C 299.723 311.283 300.773 312.971 300.773 316.419 C 300.773 316.889 300.76 317.301 300.731 317.661 C 300.663 318.283 300.614 318.762 300.592 319.095 C 300.323 321.236 299.968 322.812 299.523 323.83 C 299.078 324.841 298.451 325.519 297.634 325.884 L 298.33 329.151 Z M 293.435 321.432 L 294.223 321.407 C 294.678 321.393 294.994 320.71 295.165 319.347 C 295.197 319.083 295.22 318.83 295.249 318.578 C 295.278 318.324 295.29 318.121 295.29 317.947 C 295.29 317.288 295.125 316.945 294.804 316.955 L 294.017 316.98 L 293.435 321.432 Z" fill="white" style=""/>
  <path d="M 310.069 310.964 C 311.252 310.927 312.222 311.446 312.991 312.498 C 313.757 313.561 314.14 315.069 314.14 317.038 C 314.14 317.75 314.096 318.442 314.002 319.11 L 312.793 328.193 C 312.445 330.889 311.844 332.816 310.979 333.988 C 310.228 335.035 309.194 335.567 307.876 335.608 L 303.747 335.736 C 302.488 335.775 301.548 335.305 300.937 334.313 C 300.323 333.324 300.02 331.843 300.02 329.864 C 300.02 328.695 300.107 327.482 300.283 326.224 L 301.168 319.456 C 301.517 316.855 302.02 314.898 302.679 313.601 C 303.524 311.958 304.716 311.112 306.244 311.065 L 310.069 310.946 L 310.069 310.964 Z M 305.718 328.062 C 305.678 328.397 305.66 328.683 305.66 328.923 C 305.66 329.52 305.846 329.799 306.227 329.787 C 306.481 329.779 306.675 329.675 306.798 329.475 C 306.926 329.264 307.027 328.898 307.089 328.384 L 308.419 318.333 C 308.45 318.041 308.459 317.861 308.459 317.764 C 308.459 317.07 308.267 316.737 307.876 316.749 C 307.444 316.762 307.161 317.252 307.015 318.2 L 305.718 328.062 Z" fill="white" style=""/>
  <path d="M 319.321 327.857 C 319.291 328.096 319.279 328.241 319.279 328.288 C 319.279 328.816 319.506 329.07 319.966 329.056 C 320.225 329.048 320.406 328.969 320.522 328.805 C 320.64 328.657 320.728 328.314 320.789 327.823 L 322.782 312.509 C 322.81 312.274 322.755 312.036 322.62 311.786 C 322.487 311.536 322.346 311.418 322.196 311.423 L 322.294 310.609 L 327.894 310.435 C 328.124 310.428 328.287 310.527 328.384 310.716 C 328.482 310.911 328.538 311.203 328.538 311.585 L 328.496 312.122 L 326.459 327.792 C 326.11 330.508 325.54 332.44 324.745 333.581 C 324.035 334.606 323.03 335.128 321.742 335.168 L 317.129 335.311 C 315.908 335.349 315.01 334.891 314.438 333.955 C 313.868 333.006 313.58 331.592 313.58 329.713 C 313.58 328.574 313.682 327.271 313.884 325.791 L 315.6 312.722 C 315.631 312.487 315.574 312.249 315.439 312.002 C 315.305 311.751 315.165 311.632 315.017 311.637 L 315.114 310.823 L 320.715 310.649 C 320.943 310.642 321.105 310.738 321.212 310.929 C 321.308 311.124 321.362 311.419 321.362 311.795 L 321.322 312.332 L 319.321 327.857 Z" fill="white" style=""/>
  <path d="M 337.793 310.102 C 339.031 310.064 339.965 310.481 340.595 311.335 C 341.223 312.196 341.536 313.58 341.536 315.476 C 341.536 315.999 341.527 316.475 341.497 316.9 C 341.476 317.33 341.409 317.869 341.315 318.506 C 340.884 321.801 340.4 323.984 339.864 325.058 C 339.328 326.117 338.447 326.684 337.223 326.722 L 333.074 326.851 L 332.325 332.466 L 332.265 333.147 C 332.265 333.411 332.325 333.624 332.445 333.783 C 332.566 333.94 332.705 334.018 332.868 334.013 L 332.748 334.835 L 327.19 335.008 C 326.96 335.015 326.791 334.91 326.673 334.682 C 326.56 334.462 326.508 334.164 326.508 333.78 C 326.508 333.636 326.516 333.456 326.547 333.213 L 329.288 312.287 C 329.311 312.031 329.258 311.782 329.126 311.538 C 328.992 311.307 328.844 311.186 328.682 311.191 L 328.807 310.379 L 337.793 310.1 L 337.793 310.102 Z M 333.845 321.136 L 334.469 321.116 C 334.808 321.106 335.052 320.908 335.215 320.536 C 335.378 320.153 335.526 319.45 335.658 318.401 C 335.74 317.779 335.781 317.294 335.781 316.94 C 335.781 316.462 335.72 316.13 335.609 315.965 C 335.5 315.791 335.327 315.696 335.096 315.703 L 334.556 315.72 L 333.845 321.136 Z" fill="white" style=""/>
</svg>